<svg width="128" height="56" viewBox="0 0 128 56" fill="none" xmlns="http://www.w3.org/2000/svg">
<path d="M80.401 41.9906H74.7373L76.6132 35.3271H78.5249L80.401 41.9906Z" fill="#F24141"/>
<path d="M86.0649 41.9902H82.289L77.5694 26.4423L72.8494 41.9902H69.0737L75.4455 22H79.6933L86.0649 41.9902Z" fill="white"/>
<path d="M90.7846 22H87.0088V41.9902H90.7846V22Z" fill="white"/>
<path d="M95.504 33.155L93.3328 38.3376L90.7842 32.3159V22L95.504 33.155Z" fill="white"/>
<path d="M100.224 22V32.3159L97.6752 38.3376L97.0853 39.769H93.9231L93.333 38.3376L95.5042 33.155L100.224 22Z" fill="white"/>
<path d="M104 22H100.224V41.9902H104V22Z" fill="white"/>
<path d="M65.345 35.3274H69.1444C69.1444 39.1773 66.0766 42.2622 62.3953 41.9661C59.0914 41.7193 56.5664 38.7331 56.5664 35.2533V28.7379C56.5664 25.1349 59.3038 22.0746 62.7493 22.0006C64.5429 21.9759 66.1474 22.7162 67.3037 23.9502C68.4365 25.1595 69.1444 26.8131 69.1444 28.6639H65.345C65.2509 28.0964 65.0147 27.6027 64.6371 27.2326C64.0945 26.6649 63.3155 26.3441 62.4897 26.4922C61.2389 26.6896 60.3421 27.8496 60.3421 29.1822V34.8584C60.3421 36.1911 61.2626 37.4004 62.5368 37.5484C63.9291 37.6966 65.1328 36.6847 65.345 35.3274Z" fill="white"/>
<path d="M41.4629 41.9902H45.8287C48.1177 41.9902 49.9585 40.0405 49.9585 37.6713V22H46.1826V36.0671C46.1826 37.153 45.3331 38.0415 44.2948 38.0415H41.4629V41.9902Z" fill="white"/>
<path d="M54.2063 22H41.4629V25.9506H54.2063V22Z" fill="white"/>
<path fill-rule="evenodd" clip-rule="evenodd" d="M32.2596 42C36.8212 42 40.519 37.5229 40.519 32.0001C40.519 26.4772 36.8212 22 32.2596 22C27.6979 22 24 26.4772 24 32.0001C24 37.5229 27.6979 42 32.2596 42ZM32.2067 37.6097C34.7967 37.6097 36.8962 35.0981 36.8962 31.9999C36.8962 28.9018 34.7967 26.3902 32.2067 26.3902C29.6167 26.3902 27.5171 28.9018 27.5171 31.9999C27.5171 35.0981 29.6167 37.6097 32.2067 37.6097Z" fill="white"/>
<path fill-rule="evenodd" clip-rule="evenodd" d="M36.2569 41.9999L31.0796 32.6172H35.4395L40.6169 41.9999H36.2569Z" fill="white"/>
</svg>
