<svg width="24" height="24" viewBox="0 0 24 24" fill="none" xmlns="http://www.w3.org/2000/svg">
<g clip-path="url(#clip0_120_7088)">
<path fill-rule="evenodd" clip-rule="evenodd" d="M9.58598 1.771L9.77144 2.13453C10.1855 2.9462 11.0285 3.50025 12 3.50025C12.9715 3.50025 13.8145 2.9462 14.2286 2.13453L14.414 1.771L14.8073 1.87987C16.4522 2.33521 17.9343 3.18041 19.1482 4.30907L19.4207 4.56251L19.2562 4.89633C19.0923 5.2287 19 5.60296 19 6.00023C19 7.38094 20.1193 8.50023 21.5 8.50023L21.535 8.49998L21.9075 8.49466L22.0191 8.8501C22.3317 9.84517 22.5 10.9035 22.5 12.0002C22.5 12.7242 22.4267 13.4314 22.2869 14.115L22.1966 14.5565L21.7481 14.5124C21.6665 14.5044 21.5838 14.5002 21.5 14.5002C20.1193 14.5002 19 15.6195 19 17.0002C19 17.6145 19.2209 18.1759 19.5882 18.6113L19.8788 18.9557L19.5663 19.2804C18.3268 20.5684 16.7609 21.541 15.0008 22.065L14.5311 22.2049L14.3818 21.7381C14.0594 20.7295 13.1142 20.0002 12 20.0002C10.8858 20.0002 9.94056 20.7295 9.61816 21.7381L9.46893 22.2049L8.99923 22.065C7.23908 21.541 5.67316 20.5684 4.43367 19.2804L4.12117 18.9557L4.41179 18.6112C4.77909 18.1759 5 17.6145 5 17.0002C5 15.6195 3.88071 14.5002 2.5 14.5002C2.41625 14.5002 2.33349 14.5044 2.25189 14.5124L1.80343 14.5565L1.71314 14.115C1.57333 13.4314 1.5 12.7242 1.5 12.0002C1.5 10.9035 1.66831 9.84517 1.98087 8.85009L2.09252 8.49466L2.46503 8.49998L2.5 8.50023C3.88071 8.50023 5 7.38094 5 6.00023C5 5.60296 4.9077 5.2287 4.74384 4.89633L4.57926 4.56251L4.85183 4.30907C6.06566 3.18041 7.54777 2.33521 9.19266 1.87987L9.58598 1.771ZM5.79194 4.80908C5.92664 5.1813 6 5.58259 6 6.00023C6 7.81967 4.61169 9.31487 2.83661 9.48425C2.61726 10.2851 2.5 11.1286 2.5 12.0002C2.5 12.5116 2.54036 13.0132 2.61798 13.5022C4.49636 13.5644 6 15.1067 6 17.0002C6 17.6926 5.79852 18.3389 5.45126 18.8824C6.41539 19.8002 7.57169 20.5171 8.8531 20.9668C9.42137 19.8028 10.6164 19.0002 12 19.0002C13.3836 19.0002 14.5786 19.8028 15.1469 20.9668C16.4283 20.5171 17.5846 19.8002 18.5487 18.8824C18.2015 18.3389 18 17.6926 18 17.0002C18 15.1067 19.5036 13.5644 21.382 13.5022C21.4596 13.0132 21.5 12.5116 21.5 12.0002C21.5 11.1286 21.3827 10.2851 21.1634 9.48425C19.3883 9.31486 18 7.81967 18 6.00023C18 5.58259 18.0734 5.18131 18.2081 4.80908C17.2536 3.98432 16.1337 3.34668 14.9052 2.95255C14.2772 3.88541 13.2107 4.50025 12 4.50025C10.7893 4.50025 9.72284 3.88541 9.09477 2.95255C7.8663 3.34668 6.74637 3.98432 5.79194 4.80908Z" fill="white"/>
<path fill-rule="evenodd" clip-rule="evenodd" d="M8 12.0002C8 9.79104 9.79086 8.00018 12 8.00018C14.2091 8.00018 16 9.79104 16 12.0002C16 14.2093 14.2091 16.0002 12 16.0002C9.79086 16.0002 8 14.2093 8 12.0002ZM12 9.00018C10.3431 9.00018 9 10.3433 9 12.0002C9 13.657 10.3431 15.0002 12 15.0002C13.6569 15.0002 15 13.657 15 12.0002C15 10.3433 13.6569 9.00018 12 9.00018Z" fill="white"/>
</g>
<defs>
<clipPath id="clip0_120_7088">
<rect width="24" height="24" fill="white"/>
</clipPath>
</defs>
</svg>
